<svg width="512" height="512" viewBox="0 0 512 512" fill="none" xmlns="http://www.w3.org/2000/svg">
<rect width="512" height="512" rx="64" fill="#5865F2"/>
<path fill-rule="evenodd" clip-rule="evenodd" d="M179.302 116.909H332.318V348.801C332.318 391.437 297.979 426 255.81 426C213.556 426 179.302 391.443 179.302 348.801V116.909ZM164 86H347.62V116.909H164V86ZM209.905 116.909V178.727H301.715V116.909H209.905ZM232.858 333.273C245.534 333.273 255.81 322.894 255.81 310.091C255.81 297.288 245.534 286.909 232.858 286.909C220.181 286.909 209.905 297.288 209.905 310.091C209.905 322.894 220.181 333.273 232.858 333.273ZM278.763 256C291.439 256 301.715 245.621 301.715 232.818C301.715 220.015 291.439 209.636 278.763 209.636C266.086 209.636 255.81 220.015 255.81 232.818C255.81 245.621 266.086 256 278.763 256Z" fill="white"/>
</svg>
