<svg width="512" height="512" viewBox="0 0 512 512" fill="none" xmlns="http://www.w3.org/2000/svg">
<rect width="512" height="512" rx="64" fill="black"/>
<path fill-rule="evenodd" clip-rule="evenodd" d="M332.318 116.909V348.801C332.318 391.437 297.979 426 255.81 426C213.556 426 179.302 391.443 179.302 348.801V116.909H164V86H347.62V116.909H332.318ZM301.715 116.909V178.727H209.905V116.909H301.715ZM209.905 178.727H301.715V348.801C301.715 391.437 263.5 395 256.5 395C249.5 395 209.905 391.443 209.905 348.801V178.727Z" fill="#3242E0"/>
<path fill-rule="evenodd" clip-rule="evenodd" d="M209.905 178.727H301.715V348.801C301.715 391.437 263.5 395 256.5 395C249.5 395 209.905 391.443 209.905 348.801V178.727ZM268.763 256C281.439 256 291.715 245.621 291.715 232.818C291.715 220.015 281.439 209.636 268.763 209.636C256.086 209.636 245.81 220.015 245.81 232.818C245.81 245.621 256.086 256 268.763 256ZM242.858 333.273C255.534 333.273 265.81 322.894 265.81 310.091C265.81 297.288 255.534 286.909 242.858 286.909C230.181 286.909 219.905 297.288 219.905 310.091C219.905 322.894 230.181 333.273 242.858 333.273Z" fill="#A4EF02"/>
<path d="M81.5 147C87.5 138.6 83.3333 137.167 80.5 137.5C75.1667 137.5 63.6 137.2 60 136C56.4 134.8 58.5 132.5 60 131.5C65.8333 131.333 78.4 131 82 131C86.5 131 88 129 93 124C93.8 119.2 95 117.667 95.5 117.5C96.5 118.167 99 119.4 101 119C103 118.6 105.833 116.5 107 115.5C110.667 108.5 118.6 93.5999 121 89.9999C124.2 87.1999 124.667 90.1666 124.5 91.9999L119 105.5C117.833 108 115.5 113.7 115.5 116.5C115.5 119.3 117.833 120 119 120C119.5 119.5 121.1 118.4 123.5 118C125.9 117.6 126.167 119.5 126 120.5C125.5 121.167 123.9 123.1 121.5 125.5C120.7 128.7 123.167 130.167 124.5 130.5C129.667 130.833 141.4 131.6 147 132C149 132.8 147.833 135 147 136L124.5 137C120.667 137.667 113 140.3 113 145.5C113 150.7 111.333 150.667 110.5 150C110.667 149.833 110.2 149.3 107 148.5C103.8 147.7 100 151.5 98.5 153.5C95.5 159.667 88.8 172.8 86 176C83.2 179.2 82.5 177.333 82.5 176C84.5 170.667 89 158.7 91 153.5C93 148.3 88.5 148.667 86 149.5C83.5 150.333 79.1 151 81.5 147Z" fill="#FF51D2"/>
</svg>
