<svg width="96" height="96" viewBox="0 0 96 96" fill="none" xmlns="http://www.w3.org/2000/svg">
<path d="M72.6633 25.8647C60.3565 25.8647 50.4002 13.4758 50.3036 13.3433C48.9513 11.5522 46.2896 11.5522 44.9373 13.3433C44.8407 13.4758 34.8843 25.8647 22.5776 25.8647C20.5992 25.8647 19 27.465 19 29.4423V54.4851C19 68.1219 43.0769 81.6512 45.8316 83.1055C46.354 83.3814 47.048 84 47.6204 84C48.1928 84 48.8869 83.3778 49.4092 83.1055C52.1639 81.6512 76.2408 68.1219 76.2408 54.4851V29.4423C76.2408 27.465 74.6417 25.8647 72.6633 25.8647ZM58.3531 61.6402L47.6204 54.4851L36.8878 61.6402L40.4653 50.9076L33.3102 43.7525H44.0429L47.6204 33.0198L51.198 43.7525H61.9306L54.7755 50.9076L58.3531 61.6402Z" fill="#5865F2"/>
</svg>
