<svg width="96" height="96" viewBox="0 0 96 96" fill="none" xmlns="http://www.w3.org/2000/svg">
<g clip-path="url(#clip0_56_53)">
<path fill-rule="evenodd" clip-rule="evenodd" d="M47.6405 12C27.3792 12 11 28.5 11 48.9128C11 65.2298 21.4947 79.0417 36.0537 83.9303C37.874 84.2977 38.5408 83.136 38.5408 82.1588C38.5408 81.303 38.4807 78.3698 38.4807 75.3135C28.2882 77.514 26.1658 70.9133 26.1658 70.9133C24.5278 66.6353 22.1007 65.5357 22.1007 65.5357C18.7647 63.2745 22.3438 63.2745 22.3438 63.2745C26.0443 63.519 27.986 67.0635 27.986 67.0635C31.2613 72.6855 36.539 71.097 38.6623 70.119C38.9653 67.7355 39.9365 66.0855 40.9678 65.169C32.8385 64.3132 24.2855 61.1355 24.2855 46.9567C24.2855 42.9233 25.7405 39.6233 28.046 37.0568C27.6823 36.1403 26.408 32.3505 28.4105 27.2782C28.4105 27.2782 31.5042 26.3003 38.48 31.0672C41.4666 30.2592 44.5466 29.8482 47.6405 29.8447C50.7342 29.8447 53.888 30.273 56.8003 31.0672C63.7768 26.3003 66.8705 27.2782 66.8705 27.2782C68.873 32.3505 67.598 36.1403 67.2342 37.0568C69.6005 39.6233 70.9955 42.9233 70.9955 46.9567C70.9955 61.1355 62.4425 64.2517 54.2525 65.169C55.5875 66.33 56.7395 68.5297 56.7395 72.0135C56.7395 76.9635 56.6795 80.9362 56.6795 82.158C56.6795 83.136 57.347 84.2977 59.1665 83.931C73.7255 79.041 84.2202 65.2298 84.2202 48.9128C84.2803 28.5 67.841 12 47.6405 12Z" fill="#A991D3"/>
</g>
<defs>
<clipPath id="clip0_56_53">
<rect width="73.5" height="72" fill="white" transform="translate(11 12)"/>
</clipPath>
</defs>
</svg>
