<svg width="96" height="96" viewBox="0 0 96 96" fill="none" xmlns="http://www.w3.org/2000/svg">
<path d="M28.9043 16L68.0686 55.538L75.0458 48.4942L79.6863 53.179L71.5572 61.3856L82.023 71.9512C83.3065 73.247 83.3065 75.3402 82.023 76.636L79.6863 78.9949C78.4027 80.2907 76.3293 80.2907 75.0458 78.9949L64.4484 68.4626L56.4181 76.6692L51.7776 71.9844L58.7548 64.9407L19.5905 25.4027V16H28.9043ZM60.7952 41.1182L76.3951 25.3695V16H67.0813L51.4814 31.7487L60.7952 41.1182ZM44.5042 57.7308L35.1904 48.1952L27.917 55.538L20.9398 48.4942L16.2993 53.179L24.4284 61.3856L13.9627 71.9844C12.6791 73.2802 12.6791 75.3734 13.9627 76.6692L16.2993 79.0282C17.5829 80.3239 19.6563 80.3239 20.9398 79.0282L31.5372 68.4626L39.5675 76.6692L44.208 71.9844L37.2309 64.9407L44.5042 57.7308Z" fill="#7289DA"/>
</svg>
