<svg width="256" height="256" viewBox="0 0 256 256" fill="none" xmlns="http://www.w3.org/2000/svg">
<rect width="256" height="256" rx="32" fill="#5865F2"/>
<path d="M28.328 122C40.552 122 45.224 116.176 45.224 110.608C45.224 104.4 40.072 99.6 29.288 99.6H14.184V122H28.328ZM26.984 107.088H28.424C30.536 107.088 31.4 108.752 31.4 110.608C31.4 112.848 30.376 114.512 28.104 114.512H26.984V107.088ZM59.5778 122V99.6H46.7778V122H59.5778ZM75.15 122.8C83.566 122.8 89.518 119.6 89.518 114.192C89.518 109.936 85.87 108.272 80.334 107.92L77.326 107.728C75.534 107.632 75.438 107.312 75.438 107.024C75.438 106.48 75.758 106.16 78.382 106.16C82.606 106.16 85.774 106.992 87.918 108.016V100.976C86.126 100.144 82.51 98.8 76.078 98.8C65.614 98.8 61.326 102.288 61.326 106.768C61.326 110.768 64.782 112.88 70.99 113.552L73.966 113.872C74.958 113.968 75.31 114.16 75.31 114.64C75.31 115.184 74.83 115.376 73.262 115.376C68.974 115.376 64.11 113.936 61.774 112.24V119.376C64.718 121.232 69.262 122.8 75.15 122.8ZM106.677 122.8C111.413 122.8 114.453 122.032 118.037 120.208V112.112C116.757 112.656 113.941 113.456 110.645 113.456C106.581 113.456 104.373 112.496 104.373 110.736C104.373 109.104 106.389 108.112 110.677 108.112C113.589 108.112 116.693 108.816 118.037 109.424V100.944C114.581 99.472 111.317 98.8 106.965 98.8C95.5725 98.8 90.1965 104.4 90.1965 110.992C90.1965 117.808 95.8925 122.8 106.677 122.8ZM136.183 122.8C146.839 122.8 152.951 117.296 152.951 110.576C152.951 103.536 146.839 98.8 136.215 98.8C125.527 98.8 119.415 103.568 119.415 110.576C119.415 117.264 125.527 122.8 136.183 122.8ZM136.183 114C134.423 114 133.271 112.688 133.271 110.672C133.271 108.72 134.423 107.6 136.183 107.6C137.943 107.6 139.095 108.72 139.095 110.672C139.095 112.688 137.943 114 136.183 114ZM185.312 107.504C185.312 102.512 181.568 99.6 175.616 99.6H154.528V122H167.328V113.68L171.008 122H185.28L181.024 114C183.072 113.2 185.312 111.12 185.312 107.504ZM167.328 111.024V106.96H169.536C171.104 106.96 172.064 107.664 172.064 108.912C172.064 110.224 171.136 111.024 169.536 111.024H167.328ZM200.891 122C213.115 122 217.787 116.176 217.787 110.608C217.787 104.4 212.635 99.6 201.851 99.6H186.747V122H200.891ZM199.547 107.088H200.987C203.099 107.088 203.963 108.752 203.963 110.608C203.963 112.848 202.939 114.512 200.667 114.512H199.547V107.088ZM53.768 135.6H35.944L34.408 144.016L32.936 135.6H14.824L13.736 158H24.072L24.616 144.272L27.368 158H39.88L42.536 144.048L43.176 158H55.048L53.768 135.6ZM72.8708 158.8C83.5268 158.8 89.6388 153.296 89.6388 146.576C89.6388 139.536 83.5268 134.8 72.9028 134.8C62.2148 134.8 56.1028 139.568 56.1028 146.576C56.1028 153.264 62.2148 158.8 72.8708 158.8ZM72.8708 150C71.1108 150 69.9588 148.688 69.9588 146.672C69.9588 144.72 71.1108 143.6 72.8708 143.6C74.6308 143.6 75.7828 144.72 75.7828 146.672C75.7828 148.688 74.6308 150 72.8708 150ZM130.799 135.6H112.975L111.439 144.016L109.967 135.6H91.8553L90.7673 158H101.103L101.647 144.272L104.399 158H116.911L119.567 144.048L120.207 158H132.079L130.799 135.6ZM146.734 149.104H157.198V144.368H146.734V143.152H157.614V135.6H133.934V158H157.646V150.448H146.734V149.104ZM179.328 146.096L174.88 135.6H159.872V158H170.432V147.504L175.008 158H189.888V135.6H179.328V146.096ZM219.191 135.6H191.447V144.688H199.031V158H211.831V144.688H219.191V135.6Z" fill="white"/>
<path d="M221.34 135.65H230.14V138.41H227.26V146.69H224.22V138.41H221.34V135.65ZM237.9 135.65H242.22L242.78 146.69H239.66L239.54 139.49L238.26 145.21H235.18L233.98 139.49L233.82 146.69H230.7L231.26 135.65H235.74L236.82 141.21L237.9 135.65Z" fill="white"/>
</svg>
