<svg width="256" height="256" viewBox="0 0 256 256" fill="none" xmlns="http://www.w3.org/2000/svg">
<rect width="256" height="256" rx="32" fill="#5865F2"/>
<path d="M57.8 124.1C69.372 124.1 77.556 119.7 77.556 112.264C77.556 106.412 72.54 104.124 64.928 103.64L60.792 103.376C58.328 103.244 58.196 102.804 58.196 102.408C58.196 101.66 58.636 101.22 62.244 101.22C68.052 101.22 72.408 102.364 75.356 103.772V94.092C72.892 92.948 67.92 91.1 59.076 91.1C44.688 91.1 38.792 95.896 38.792 102.056C38.792 107.556 43.544 110.46 52.08 111.384L56.172 111.824C57.536 111.956 58.02 112.22 58.02 112.88C58.02 113.628 57.36 113.892 55.204 113.892C49.308 113.892 42.62 111.912 39.408 109.58V119.392C43.456 121.944 49.704 124.1 57.8 124.1ZM103.173 92.2L97.1889 103.728V92.2H79.5889V123H97.1889V108.172L102.337 123H123.237L115.185 105.488L123.369 92.2H103.173ZM141.919 123V92.2H124.319V123H141.919ZM162.759 92.2H145.159V123H179.567V110.592H162.759V92.2ZM199.283 92.2H181.683V123H216.091V110.592H199.283V92.2ZM57.228 165V134.2H39.628V165H57.228ZM78.6398 166.1C90.2118 166.1 98.3958 161.7 98.3958 154.264C98.3958 148.412 93.3798 146.124 85.7678 145.64L81.6318 145.376C79.1678 145.244 79.0358 144.804 79.0358 144.408C79.0358 143.66 79.4758 143.22 83.0838 143.22C88.8918 143.22 93.2478 144.364 96.1958 145.772V136.092C93.7318 134.948 88.7598 133.1 79.9158 133.1C65.5278 133.1 59.6318 137.896 59.6318 144.056C59.6318 149.556 64.3838 152.46 72.9198 153.384L77.0118 153.824C78.3758 153.956 78.8598 154.22 78.8598 154.88C78.8598 155.628 78.1998 155.892 76.0438 155.892C70.1478 155.892 63.4598 153.912 60.2478 151.58V161.392C64.2958 163.944 70.5438 166.1 78.6398 166.1ZM118.601 166.1C130.173 166.1 138.357 161.7 138.357 154.264C138.357 148.412 133.341 146.124 125.729 145.64L121.593 145.376C119.129 145.244 118.997 144.804 118.997 144.408C118.997 143.66 119.437 143.22 123.045 143.22C128.853 143.22 133.209 144.364 136.157 145.772V136.092C133.693 134.948 128.721 133.1 119.877 133.1C105.489 133.1 99.5928 137.896 99.5928 144.056C99.5928 149.556 104.345 152.46 112.881 153.384L116.973 153.824C118.337 153.956 118.821 154.22 118.821 154.88C118.821 155.628 118.161 155.892 116.005 155.892C110.109 155.892 103.421 153.912 100.209 151.58V161.392C104.257 163.944 110.505 166.1 118.601 166.1ZM160.454 166.1C173.126 166.1 180.914 160.336 180.914 150.612V134.2H163.314V150.568C163.314 152.328 162.39 153.604 160.454 153.604C158.518 153.604 157.594 152.328 157.594 150.568V134.2H139.994V150.612C139.994 160.336 147.782 166.1 160.454 166.1ZM201.388 152.768H215.776V146.256H201.388V144.584H216.348V134.2H183.788V165H216.392V154.616H201.388V152.768Z" fill="white"/>
</svg>
