<svg width="256" height="256" viewBox="0 0 256 256" fill="none" xmlns="http://www.w3.org/2000/svg">
<rect width="256" height="256" rx="32" fill="#5865F2"/>
<path d="M45.8 145.1C57.372 145.1 65.556 140.7 65.556 133.264C65.556 127.412 60.54 125.124 52.928 124.64L48.792 124.376C46.328 124.244 46.196 123.804 46.196 123.408C46.196 122.66 46.636 122.22 50.244 122.22C56.052 122.22 60.408 123.364 63.356 124.772V115.092C60.892 113.948 55.92 112.1 47.076 112.1C32.688 112.1 26.792 116.896 26.792 123.056C26.792 128.556 31.544 131.46 40.08 132.384L44.172 132.824C45.536 132.956 46.02 133.22 46.02 133.88C46.02 134.628 45.36 134.892 43.204 134.892C37.308 134.892 30.62 132.912 27.408 130.58V140.392C31.456 142.944 37.704 145.1 45.8 145.1ZM89.5449 145.1C104.197 145.1 112.601 137.532 112.601 128.292C112.601 118.612 104.197 112.1 89.5889 112.1C74.8929 112.1 66.4889 118.656 66.4889 128.292C66.4889 137.488 74.8929 145.1 89.5449 145.1ZM89.5449 133C87.1249 133 85.5409 131.196 85.5409 128.424C85.5409 125.74 87.1249 124.2 89.5449 124.2C91.9649 124.2 93.5489 125.74 93.5489 128.424C93.5489 131.196 91.9649 133 89.5449 133ZM136.725 145.1C151.377 145.1 159.781 137.532 159.781 128.292C159.781 118.612 151.377 112.1 136.769 112.1C122.073 112.1 113.669 118.656 113.669 128.292C113.669 137.488 122.073 145.1 136.725 145.1ZM136.725 133C134.305 133 132.721 131.196 132.721 128.424C132.721 125.74 134.305 124.2 136.725 124.2C139.145 124.2 140.729 125.74 140.729 128.424C140.729 131.196 139.145 133 136.725 133ZM188.7 127.632L182.584 113.2H161.948V144H176.468V129.568L182.76 144H203.22V113.2H188.7V127.632Z" fill="white"/>
<path d="M204.924 113.14H214.604V116.176H211.436V125.284H208.092V116.176H204.924V113.14ZM223.14 113.14H227.892L228.508 125.284H225.076L224.944 117.364L223.536 123.656H220.148L218.828 117.364L218.652 125.284H215.22L215.836 113.14H220.764L221.952 119.256L223.14 113.14Z" fill="white"/>
</svg>
