<svg width="96" height="96" viewBox="0 0 96 96" fill="none" xmlns="http://www.w3.org/2000/svg">
<path d="M20.4595 80H75.3784" stroke="#1ABC9C" stroke-width="4" stroke-linecap="square"/>
<path d="M77.2703 74.811H19C17.8954 74.811 17 73.9155 17 72.811V65.7299C17.3459 56.3893 25.6646 54.0542 29.7807 54.0542H68.4595C76.7622 54.0542 79.1261 60.3965 79.2703 63.5677V72.811C79.2703 73.9155 78.3748 74.811 77.2703 74.811Z" fill="#1ABC9C"/>
<path d="M35.5946 26.3784C37.9785 30.3517 40.1191 40.653 40.3391 48.5608C40.3702 49.679 41.268 50.5946 42.3866 50.5946H53.054C54.1586 50.5946 55.0504 49.6979 55.09 48.594C55.4716 37.9696 58.7941 29.6531 60.5846 26.5348C60.646 26.4278 60.6985 26.3164 60.7395 26.2C63.3682 18.7288 58.6361 16.2861 55.9189 16L40.5148 16C40.4046 16 40.2989 16.0083 40.1906 16.0283C37.5171 16.5218 31.781 18.7513 35.5946 26.3784Z" fill="#1ABC9C"/>
</svg>
